<?xml version="1.0" encoding="UTF-8"?>
<svg version="1.1" xmlns="http://www.w3.org/2000/svg" width="1202" height="1204">
<path d="M0 0 C396.66 0 793.32 0 1202 0 C1202 397.32 1202 794.64 1202 1204 C805.34 1204 408.68 1204 0 1204 C0 806.68 0 409.36 0 0 Z " fill="#3E2F28" transform="translate(0,0)"/>
<path d="M0 0 C110.22 0 220.44 0 334 0 C350.09553128 47.13691304 350.09553128 47.13691304 355.64794922 63.83032227 C356.30012272 65.78712713 356.95243103 67.74388707 357.6048584 69.7006073 C359.32019189 74.8463294 361.03372063 79.99265059 362.74683523 85.13911176 C364.55806225 90.57919239 366.37107402 96.0186782 368.18386841 101.45823669 C371.59163361 111.68459803 374.99787418 121.91146646 378.40351784 132.13853449 C382.29129892 143.81318986 386.1808546 155.48725376 390.07053351 167.16127694 C398.04894804 191.10687667 406.02521804 215.05319026 414 239 C414.64734947 237.40105154 415.29278441 235.80132786 415.93740845 234.20127869 C416.29703989 233.31051604 416.65667133 232.4197534 417.0272007 231.50199795 C418.11496759 228.70430831 418.9677036 225.91162348 419.7109375 223.00390625 C419.98292969 221.96105469 420.25492188 220.91820312 420.53515625 219.84375 C420.95087891 218.21953125 420.95087891 218.21953125 421.375 216.5625 C423.40682787 208.81016103 425.50682292 201.11710898 428 193.5 C430.82161643 184.86425875 433.17922223 176.12370102 435.46484375 167.33203125 C436.82025122 162.16735065 438.26879382 157.08224486 439.9921875 152.02734375 C442.12861918 145.75805011 443.83337255 139.40776398 445.5 133 C447.43127183 125.57474482 449.53740041 118.28916488 452.01367188 111.02734375 C453.73419796 105.74652111 455.10236121 100.37357016 456.5 95 C458.43127183 87.57474482 460.53740041 80.28916488 463.01367188 73.02734375 C464.73419796 67.74652111 466.10236121 62.37357016 467.5 57 C469.1621266 50.60954064 470.86013251 44.27533583 472.9921875 38.0234375 C475.17152279 31.63254201 476.91500847 25.1547464 478.625 18.625 C479.21968197 16.36674649 479.81598228 14.10891839 480.4140625 11.8515625 C480.6713916 10.87010254 480.9287207 9.88864258 481.19384766 8.87744141 C482.03108613 5.88904268 483.01859819 2.94420544 484 0 C592.9 0 701.8 0 814 0 C814 43.23 814 86.46 814 131 C806.74 131.33 799.48 131.66 792 132 C780.05602662 134.37185287 769.78097931 136.47002782 762.2890625 146.546875 C758.87224893 153.04917476 757.55362978 159.32358783 757.61904907 166.61450195 C757.6143691 167.43255216 757.60968913 168.25060236 757.60486734 169.09344196 C757.59299228 171.80855802 757.60234495 174.5231623 757.61181641 177.23828125 C757.60774737 179.19542737 757.60240363 181.15257119 757.59588623 183.10971069 C757.58224636 188.40719139 757.58749756 193.70449618 757.59702349 199.00197983 C757.60463732 204.5551169 757.59756969 210.10823927 757.59286499 215.66137695 C757.58741247 224.98554173 757.59458587 234.30963513 757.60888672 243.63378906 C757.62521223 254.40213777 757.61992337 265.17031605 757.6034075 275.93866062 C757.58977832 285.19667039 757.58787999 294.45462896 757.59572351 303.71264553 C757.60039214 309.23656951 757.60104715 314.76041348 757.59111404 320.28433228 C757.58242585 325.4784299 757.58850021 330.67230854 757.60579681 335.8663826 C757.60975175 337.76864891 757.60864469 339.67093375 757.60200882 341.5731926 C757.5937638 344.1775403 757.60415015 346.78119408 757.61904907 349.38549805 C757.61235691 350.13133306 757.60566474 350.87716806 757.59876978 351.64560413 C757.69227601 360.12040585 760.53453706 368.45865853 766 375 C778.60194812 386.25494654 798.98046954 384.88744219 814 386 C814 428.9 814 471.8 814 516 C711.37 516 608.74 516 503 516 C503 473.1 503 430.2 503 386 C512.405 385.505 512.405 385.505 522 385 C531.07262135 383.34326045 539.15964647 381.84035353 545.8125 375.1875 C551.27137409 367.23314061 552.15491158 359.80332256 552.12025452 350.38198853 C552.12110894 349.52748309 552.12196337 348.67297765 552.12284368 347.7925781 C552.12448739 344.93672978 552.11899528 342.08094054 552.11352539 339.22509766 C552.11324325 337.17497763 552.11340177 335.12485751 552.1139679 333.07473755 C552.11425483 327.51327789 552.10837476 321.9518398 552.10139394 316.39038515 C552.09514324 310.57677603 552.09455524 304.76316641 552.09336853 298.94955444 C552.09026029 287.94246686 552.08205371 276.9353892 552.07201904 265.92830598 C552.06084219 253.39636307 552.05534349 240.86441969 552.05032361 228.33247304 C552.03987069 202.55497652 552.02228103 176.77748882 552 151 C551.81842598 151.56866791 551.63685196 152.13733582 551.4497757 152.72323608 C535.17549267 203.68714216 535.17549267 203.68714216 528.44384766 224.13232422 C522.54294881 242.06092171 516.73314197 260.01711067 511 278 C505.22398915 296.1173542 499.35389941 314.2019034 493.42724609 332.27050781 C488.217277 348.15913339 483.07896635 364.06903401 478 380 C472.22860153 398.10288678 466.36379754 416.17319903 460.44134521 434.22720337 C454.23604058 453.14912884 448.13634022 472.10355886 442.08789062 491.07617188 C441.76774994 492.08001419 441.44760925 493.08385651 441.11776733 494.11811829 C440.5263281 495.97337319 439.93547507 497.82881514 439.34536743 499.68449402 C438.94648819 500.93641289 438.94648819 500.93641289 438.53955078 502.21362305 C438.31324982 502.92503952 438.08694885 503.63645599 437.85379028 504.36943054 C436.59296843 508.2540841 435.29151868 512.12544395 434 516 C389.45 516 344.9 516 299 516 C296.03880651 508.89313563 293.18047995 501.98255865 290.7578125 494.71484375 C290.47305054 493.8729953 290.18828857 493.03114685 289.89489746 492.16378784 C289.28539259 490.36104985 288.6776622 488.55771106 288.07159424 486.7538147 C286.42190622 481.8456498 284.75720644 476.94257467 283.09375 472.0390625 C282.75244049 471.03206802 282.41113098 470.02507355 282.05947876 468.98756409 C278.63904493 458.90896013 275.14088377 448.85813302 271.625 438.8125 C270.37747901 435.24613752 269.13012811 431.67971556 267.8828125 428.11328125 C267.4119371 426.76722054 267.4119371 426.76722054 266.93154907 425.39396667 C263.10038277 414.43648096 259.30129784 403.4678743 255.5 392.5 C250.18278075 377.16101423 244.85200222 361.82688403 239.5 346.5 C234.19179473 331.29738753 228.90136771 316.08869218 223.625 300.875 C223.27149475 299.85573425 222.9179895 298.83646851 222.55377197 297.78631592 C219.67410865 289.48285252 216.79541093 281.17905442 213.91674805 272.87524414 C205.87637873 249.68235921 197.83126638 226.49117271 189.75 203.3125 C189.44116882 202.42620911 189.13233765 201.53991821 188.81414795 200.62677002 C187.9339772 198.1012353 187.05304999 195.57596574 186.171875 193.05078125 C185.92359955 192.33818649 185.6753241 191.62559174 185.41952515 190.8914032 C183.76517654 186.1544804 182.08427778 181.42724189 180.39532471 176.70256042 C180.16440439 176.05629747 179.93348408 175.41003451 179.69556618 174.74418783 C179.13047844 173.1627558 178.56525322 171.58137289 178 170 C177.92988713 195.13900136 177.87700062 220.27798805 177.84456348 245.41706753 C177.82910136 257.08984587 177.80802428 268.76256342 177.77368164 280.43530273 C177.74375933 290.61047232 177.72442024 300.78559788 177.71773452 310.96081024 C177.71382708 316.34740244 177.70465754 321.73386867 177.68280983 327.12042046 C177.66240003 332.19371069 177.65617532 337.26682344 177.66067696 342.34015083 C177.65985377 344.19888398 177.65391499 346.05762325 177.64238358 347.9163208 C177.43419278 364.52162837 177.43419278 364.52162837 185 379 C197.20318047 387.61400975 212.76956359 385.45267552 227 386 C227 428.9 227 471.8 227 516 C152.09 516 77.18 516 0 516 C0 473.1 0 430.2 0 386 C9.405 385.505 9.405 385.505 19 385 C30.30429372 383.40902533 42.6732194 381.66609206 50.5 372.4375 C57.55213871 360.91620206 57.57654485 348.92389093 57.50170898 335.89013672 C57.50549941 333.99475708 57.51100538 332.09938023 57.51808167 330.20401001 C57.53195727 325.09251448 57.52092313 319.98135853 57.50437045 314.86988211 C57.49044362 309.50188575 57.49698853 304.13390759 57.50050354 298.76589966 C57.50319918 289.75647558 57.48978411 280.74718522 57.46655273 271.73779297 C57.43993098 261.34202427 57.4382035 250.94647879 57.4499411 240.55068767 C57.46074237 230.52068232 57.45451441 220.49075721 57.44038582 210.46075821 C57.43464802 206.20504978 57.43469123 201.9494005 57.43945122 197.69369125 C57.4442446 192.67844812 57.43402197 187.66344762 57.41249657 182.64825058 C57.40696119 180.814553 57.4064333 178.98083195 57.41144943 177.14713287 C57.599491 159.30142091 57.599491 159.30142091 49.71484375 143.7109375 C36.88685737 130.91217205 16.51419218 131.7506451 0 131 C0 87.77 0 44.54 0 0 Z " fill="#EAE0D2" transform="translate(192,307)"/>
<path d="M0 0 C0.66 0 1.32 0 2 0 C2 397.32 2 794.64 2 1204 C-394.66 1204 -791.32 1204 -1200 1204 C-1200 1202.35 -1200 1200.7 -1200 1199 C-804 1199 -408 1199 0 1199 C0 803.33 0 407.66 0 0 Z " fill="#EAEAEA" transform="translate(1200,0)"/>
<path d="M0 0 C0.66 0 1.32 0 2 0 C2 396.33 2 792.66 2 1201 C-394.66 1200.67 -791.32 1200.34 -1200 1200 C-1200 1199.67 -1200 1199.34 -1200 1199 C-804 1199 -408 1199 0 1199 C0 803.33 0 407.66 0 0 Z " fill="#A29F9E" transform="translate(1200,0)"/>
<path d="M0 0 C3.3 0 6.6 0 10 0 C11.65 8.91 13.3 17.82 15 27 C16.65 18.09 18.3 9.18 20 0 C23.3 0 26.6 0 30 0 C30 1.32 30 2.64 30 4 C28.68 4 27.36 4 26 4 C26 14.23 26 24.46 26 35 C27.32 35 28.64 35 30 35 C30 36.32 30 37.64 30 39 C26.7 39 23.4 39 20 39 C20 37.68 20 36.36 20 35 C20.66 35 21.32 35 22 35 C21.67 29.72 21.34 24.44 21 19 C19.68 25.6 18.36 32.2 17 39 C15.68 39 14.36 39 13 39 C11.68 32.4 10.36 25.8 9 19 C8.67 24.28 8.34 29.56 8 35 C8.99 35 9.98 35 11 35 C11 36.32 11 37.64 11 39 C7.37 39 3.74 39 0 39 C0 37.68 0 36.36 0 35 C1.32 35 2.64 35 4 35 C4 24.77 4 14.54 4 4 C2.68 4 1.36 4 0 4 C0 2.68 0 1.36 0 0 Z " fill="#DED3C6" transform="translate(509,905)"/>
<path d="M0 0 C3.63 0 7.26 0 11 0 C11 1.32 11 2.64 11 4 C10.01 4 9.02 4 8 4 C8 8.29 8 12.58 8 17 C10.97 17 13.94 17 17 17 C17 12.71 17 8.42 17 4 C15.68 4 14.36 4 13 4 C13 2.68 13 1.36 13 0 C16.63 0 20.26 0 24 0 C24 1.32 24 2.64 24 4 C23.01 4 22.02 4 21 4 C21 14.23 21 24.46 21 35 C21.99 35 22.98 35 24 35 C24 36.32 24 37.64 24 39 C20.37 39 16.74 39 13 39 C13.33 37.68 13.66 36.36 14 35 C14.99 35 15.98 35 17 35 C17 30.05 17 25.1 17 20 C14.03 20 11.06 20 8 20 C8 24.95 8 29.9 8 35 C8.99 35 9.98 35 11 35 C11 36.32 11 37.64 11 39 C7.37 39 3.74 39 0 39 C0 37.68 0 36.36 0 35 C1.32 35 2.64 35 4 35 C4 24.77 4 14.54 4 4 C2.68 4 1.36 4 0 4 C0 2.68 0 1.36 0 0 Z " fill="#E3D9CB" transform="translate(627,905)"/>
<path d="M0 0 C2.97 0 5.94 0 9 0 C10.39763833 4.6050391 11.40943021 9.02821183 12.0703125 13.80859375 C12.24433594 15.04931641 12.41835938 16.29003906 12.59765625 17.56835938 C12.77167969 18.84517578 12.94570313 20.12199219 13.125 21.4375 C13.30675781 22.74138672 13.48851562 24.04527344 13.67578125 25.38867188 C14.12164595 28.59185774 14.56290723 31.7956074 15 35 C15.66 35 16.32 35 17 35 C17 36.32 17 37.64 17 39 C14.03 39 11.06 39 8 39 C8 37.68 8 36.36 8 35 C8.66 35 9.32 35 10 35 C10 32.03 10 29.06 10 26 C8.02 26 6.04 26 4 26 C4.020625 27.11375 4.04125 28.2275 4.0625 29.375 C4 33 4 33 3 35 C3.99 35 4.98 35 6 35 C6 36.32 6 37.64 6 39 C2.7 39 -0.6 39 -4 39 C-4 37.68 -4 36.36 -4 35 C-3.01 35 -2.02 35 -1 35 C-0.89042969 33.85144531 -0.78085937 32.70289063 -0.66796875 31.51953125 C0.27438366 22.13045876 1.57795659 13.13917712 4 4 C2.68 4 1.36 4 0 4 C0 2.68 0 1.36 0 0 Z " fill="#DDD3C5" transform="translate(671,905)"/>
<path d="M0 0 C0 4.29 0 8.58 0 13 C-1.32 13 -2.64 13 -4 13 C-4.66 10.03 -5.32 7.06 -6 4 C-7.65 4 -9.3 4 -11 4 C-12.42458057 8.92822085 -12.22355889 13.84428108 -12.25 18.9375 C-12.270625 19.92685547 -12.29125 20.91621094 -12.3125 21.93554688 C-12.38195555 28.95807672 -12.38195555 28.95807672 -9 35 C-7.02 34.505 -7.02 34.505 -5 34 C-4.67 30.37 -4.34 26.74 -4 23 C-4.99 23 -5.98 23 -7 23 C-7 21.68 -7 20.36 -7 19 C-3.7 19 -0.4 19 3 19 C3 20.32 3 21.64 3 23 C2.01 23 1.02 23 0 23 C0 28.28 0 33.56 0 39 C-3.86820385 39.65246812 -7.12531616 40.19646284 -11 40 C-15.39557673 36.59118539 -16.77378587 32.95706642 -17.71875 27.55078125 C-18.76053842 18.10233905 -18.96771759 8.17005625 -12.9375 0.3125 C-8.40566344 -1.71236314 -4.85973524 -0.77755764 0 0 Z " fill="#DCD2C5" transform="translate(608,905)"/>
<path d="M0 0 C5.94 0 11.88 0 18 0 C18 3.96 18 7.92 18 12 C16.68 12 15.36 12 14 12 C14 9.36 14 6.72 14 4 C12.02 4 10.04 4 8 4 C8 8.29 8 12.58 8 17 C9.98 17 11.96 17 14 17 C14 17.99 14 18.98 14 20 C12.02 20 10.04 20 8 20 C8 24.95 8 29.9 8 35 C10.31 35 12.62 35 15 35 C15 32.36 15 29.72 15 27 C15.99 27 16.98 27 18 27 C18 30.96 18 34.92 18 39 C12.06 39 6.12 39 0 39 C0 37.68 0 36.36 0 35 C1.32 35 2.64 35 4 35 C4 24.77 4 14.54 4 4 C2.68 3.67 1.36 3.34 0 3 C0 2.01 0 1.02 0 0 Z " fill="#E5DACD" transform="translate(554,905)"/>
<path d="M0 0 C2.97 0 5.94 0 9 0 C9 4.95 9 9.9 9 15 C8.01 15.33 7.02 15.66 6 16 C5.34 16.66 4.68 17.32 4 18 C4 17.01 4 16.02 4 15 C2.68 15 1.36 15 0 15 C0 10.05 0 5.1 0 0 Z " fill="#45372F" transform="translate(635,925)"/>
<path d="M0 0 C0 4.29 0 8.58 0 13 C-2.97 13 -5.94 13 -9 13 C-9 8.71 -9 4.42 -9 0 C-5 -1 -5 -1 0 0 Z " fill="#463730" transform="translate(644,909)"/>
<path d="M0 0 C1.98 0 3.96 0 6 0 C6 2.97 6 5.94 6 9 C5.34 9 4.68 9 4 9 C3.67 10.32 3.34 11.64 3 13 C2.67 11.68 2.34 10.36 2 9 C1.01 9 0.02 9 -1 9 C-0.67 6.03 -0.34 3.06 0 0 Z " fill="#46372F" transform="translate(675,931)"/>
<path d="M0 0 C0.33 0 0.66 0 1 0 C1 6.27 1 12.54 1 19 C0.34 19 -0.32 19 -1 19 C-1.33 20.32 -1.66 21.64 -2 23 C-2.66 22.67 -3.32 22.34 -4 22 C-3.52504948 18.89517294 -3.04431252 15.79126899 -2.5625 12.6875 C-2.42779297 11.80642578 -2.29308594 10.92535156 -2.15429688 10.01757812 C-1.95610352 8.74624023 -1.95610352 8.74624023 -1.75390625 7.44921875 C-1.63345947 6.66893311 -1.5130127 5.88864746 -1.38891602 5.0847168 C-1 3 -1 3 0 0 Z " fill="#4F4139" transform="translate(530,921)"/>
<path d="M0 0 C3.61659193 7.23318386 4.25430534 13.98938187 4 22 C3.67 21.34 3.34 20.68 3 20 C2.01 20 1.02 20 0 20 C0 13.4 0 6.8 0 0 Z " fill="#483A32" transform="translate(517,920)"/>
<path d="M0 0 C2.10827055 3.16240582 2.33817465 4.50657469 2.625 8.1875 C2.69976563 9.08855469 2.77453125 9.98960937 2.8515625 10.91796875 C2.90054688 11.60503906 2.94953125 12.29210937 3 13 C1.68 13 0.36 13 -1 13 C-0.67 8.71 -0.34 4.42 0 0 Z " fill="#5E5048" transform="translate(677,914)"/>
</svg>
